<svg width="714" height="138" viewBox="0 0 714 138" fill="none" xmlns="http://www.w3.org/2000/svg">
<g filter="url(#filter0_g_6_38916)">
<path d="M21.568 11.776C20.2027 11.776 19.52 12.9493 19.52 15.296V33.344C19.52 35.008 19.584 36.0533 19.712 36.48C20.0534 37.5893 20.7787 38.2293 21.888 38.4C22.144 38.4426 22.464 38.4853 22.848 38.528C23.232 38.528 23.6587 38.528 24.128 38.528H27.264C30.72 38.528 32.448 37.4613 32.448 35.328C32.448 34.688 32.3627 34.0053 32.192 33.28C31.9787 32.2133 31.872 31.3813 31.872 30.784C31.872 29.4186 32.384 28.288 33.408 27.392C34.432 26.4533 35.712 25.984 37.248 25.984C40.6614 25.984 42.368 27.6693 42.368 31.04C42.368 31.424 42.3467 31.8933 42.304 32.448C42.2614 33.0026 42.1974 33.6426 42.112 34.368C42.0267 35.0933 41.9627 35.7333 41.92 36.288C41.8774 36.8426 41.856 37.2906 41.856 37.632C41.856 38.0586 41.856 38.4853 41.856 38.912C41.8987 39.3386 41.9414 39.7653 41.984 40.192C42.0694 41.0453 42.1334 41.728 42.176 42.24C42.2187 42.7093 42.24 42.9866 42.24 43.072C42.24 45.4186 40.8534 46.592 38.08 46.592C37.3547 46.592 36.48 46.5706 35.456 46.528C34.432 46.4853 33.2374 46.4213 31.872 46.336C27.776 46.08 21.888 45.952 14.208 45.952C13.056 45.952 12.0107 45.9946 11.072 46.08C10.176 46.1226 9.34398 46.1866 8.576 46.272C7.808 46.4 7.08267 46.4853 6.4 46.528C5.76 46.6133 5.12 46.656 4.48 46.656C3.15734 46.656 2.06934 46.208 1.216 45.312C0.40534 44.416 0 43.2853 0 41.92C0 40.6826 0.32 39.68 0.96 38.912C1.64267 38.1013 2.496 37.696 3.52 37.696C3.86134 37.696 4.352 37.7813 4.992 37.952C5.67467 38.08 6.18667 38.144 6.528 38.144C7.68 38.144 8.256 36.6933 8.256 33.792V16.064C8.256 13.2053 7.68 11.776 6.528 11.776C6.18667 11.776 5.67467 11.8613 4.992 12.032C4.352 12.16 3.84 12.224 3.456 12.224C2.47467 12.224 1.64267 11.8186 0.96 11.008C0.32 10.1973 0 9.19463 0 8C0 4.88533 1.57867 3.328 4.736 3.328C5.33334 3.328 7.168 3.456 10.24 3.712C11.264 3.79733 12.224 3.86133 13.12 3.904C14.0587 3.94667 14.9547 3.968 15.808 3.968C16.5334 3.968 17.2374 3.94667 17.92 3.904C18.6027 3.86133 19.2854 3.79733 19.968 3.712C22.016 3.456 23.488 3.328 24.384 3.328C25.792 3.328 26.9014 3.75467 27.712 4.608C28.5654 5.41867 28.992 6.528 28.992 7.936C28.992 9.17333 28.672 10.1973 28.032 11.008C27.392 11.8186 26.5814 12.224 25.6 12.224C25.1307 12.224 24.448 12.16 23.552 12.032C22.6987 11.8613 22.0374 11.776 21.568 11.776ZM76.1205 27.52C76.1205 29.312 75.8859 30.5066 75.4165 31.104C74.9899 31.7013 74.1152 32 72.7925 32H57.1765C56.4085 32 55.9179 32.0853 55.7045 32.256C55.5339 32.384 55.4485 32.7466 55.4485 33.344C55.4485 35.136 56.0245 36.6293 57.1765 37.824C58.3285 39.0186 59.7792 39.616 61.5285 39.616C63.3205 39.616 65.1552 38.6346 67.0325 36.672C68.3125 35.3066 69.7205 34.624 71.2565 34.624C72.5365 34.624 73.5605 34.9866 74.3285 35.712C75.1392 36.4373 75.5445 37.3546 75.5445 38.464C75.5445 40.9386 74.1792 43.0506 71.4485 44.8C68.7605 46.5066 65.4752 47.36 61.5925 47.36C56.5152 47.36 52.4619 45.824 49.4325 42.752C46.4032 39.68 44.8885 35.584 44.8885 30.464C44.8885 25.3013 46.3819 21.1413 49.3685 17.984C52.3979 14.784 56.3445 13.184 61.2085 13.184C65.7312 13.184 69.3365 14.4853 72.0245 17.088C74.7552 19.6906 76.1205 23.168 76.1205 27.52ZM55.7685 24.32C55.7685 24.576 55.8325 24.7893 55.9605 24.96C56.0885 25.1306 56.5365 25.216 57.3045 25.216H64.4725C65.1125 25.216 65.4965 25.152 65.6245 25.024C65.7952 24.8533 65.8805 24.576 65.8805 24.192C65.8805 23.0826 65.3899 22.1226 64.4085 21.312C63.4272 20.4586 62.2752 20.032 60.9525 20.032C59.2459 20.032 57.8592 20.6933 56.7925 22.016C56.1099 22.8693 55.7685 23.6373 55.7685 24.32ZM93.458 22.848V25.472L93.394 29.44L93.266 33.728C93.2234 35.136 93.202 35.712 93.202 35.456C93.202 37.9733 94.0127 39.232 95.634 39.232C97.17 39.232 97.938 38.1013 97.938 35.84C97.938 35.4986 97.9167 35.2426 97.874 35.072C97.874 34.8586 97.874 34.5813 97.874 34.24C97.8314 33.9413 97.81 33.728 97.81 33.6C97.81 31.296 98.962 30.144 101.266 30.144C103.954 30.144 105.298 32.2986 105.298 36.608C105.298 39.9786 104.295 42.624 102.29 44.544C100.285 46.4213 97.49 47.36 93.906 47.36C86.866 47.36 83.346 43.648 83.346 36.224C83.346 35.0293 83.3887 33.2373 83.474 30.848C83.602 28.4586 83.666 26.6666 83.666 25.472V23.424C83.666 22.3573 83.5594 21.696 83.346 21.44C83.1754 21.1413 82.7274 20.992 82.002 20.992H80.978C80.1674 20.992 79.506 20.6933 78.994 20.096C78.482 19.456 78.226 18.6453 78.226 17.664C78.226 16.6826 78.482 15.8506 78.994 15.168C79.5487 14.4426 80.1887 14.08 80.914 14.08H82.13C83.154 14.08 83.7514 13.7813 83.922 13.184C84.05 12.8426 84.114 12.2666 84.114 11.456V8.32C84.114 6.82667 84.498 5.80267 85.266 5.248C86.0767 4.69333 87.5274 4.416 89.618 4.416C91.1114 4.416 92.114 4.62933 92.626 5.056C93.1807 5.48267 93.458 6.42134 93.458 7.872V11.328C93.458 12.5653 93.5647 13.3333 93.778 13.632C94.034 13.9306 94.6527 14.08 95.634 14.08H100.242C102.759 14.08 104.018 15.2533 104.018 17.6C104.018 19.8613 102.866 20.992 100.562 20.992H95.314C94.418 20.992 93.8847 21.1413 93.714 21.44C93.5434 21.7386 93.458 22.208 93.458 22.848ZM109.62 8.896C109.62 7.06133 110.196 5.52533 111.348 4.288C112.542 3.05067 113.993 2.432 115.7 2.432C117.79 2.432 119.54 3.30667 120.948 5.056C122.356 6.80533 123.06 8.93867 123.06 11.456C123.06 16.6186 120.777 22.016 116.212 27.648C115.102 29.0133 114.078 29.696 113.14 29.696C111.561 29.696 110.772 28.8213 110.772 27.072C110.772 26.0053 111.22 24.8106 112.116 23.488C114.59 19.8613 115.828 17.4933 115.828 16.384C115.828 15.7866 115.337 15.3386 114.356 15.04C111.198 14.144 109.62 12.096 109.62 8.896ZM141.5 13.184C144.785 13.184 147.558 14.1013 149.82 15.936C149.99 14.144 151.142 13.248 153.276 13.248C155.452 13.248 156.54 14.016 156.54 15.552C156.54 16.064 156.454 16.64 156.284 17.28C156.156 18.048 156.092 18.7733 156.092 19.456C156.092 19.584 156.113 19.9253 156.156 20.48C156.156 21.0346 156.156 21.5253 156.156 21.952V22.208C156.156 24.4693 155.025 25.6 152.764 25.6C151.142 25.6 149.734 24.7893 148.54 23.168C147.089 21.2053 145.318 20.224 143.228 20.224C140.753 20.224 139.516 21.0773 139.516 22.784C139.516 23.68 139.921 24.32 140.732 24.704C141.542 25.0453 143.676 25.5146 147.132 26.112C149.948 26.624 152.017 27.2 153.34 27.84C154.705 28.48 155.814 29.3973 156.668 30.592C157.734 32.128 158.268 33.92 158.268 35.968C158.268 39.2106 157.009 41.92 154.492 44.096C152.017 46.272 148.902 47.36 145.148 47.36C141.393 47.36 137.98 46.1653 134.908 43.776C134.908 45.8666 133.841 46.912 131.708 46.912C129.404 46.912 128.252 45.9733 128.252 44.096C128.252 43.6693 128.294 43.008 128.38 42.112C128.465 41.216 128.508 40.5546 128.508 40.128C128.508 39.744 128.465 39.168 128.38 38.4C128.337 37.632 128.316 37.056 128.316 36.672C128.316 34.752 129.51 33.792 131.9 33.792C133.052 33.792 133.926 33.9626 134.524 34.304C135.121 34.6453 135.761 35.3066 136.444 36.288C137.51 37.8666 138.492 38.912 139.388 39.424C140.284 39.8933 141.606 40.128 143.356 40.128C146.428 40.128 147.964 39.168 147.964 37.248C147.964 35.9253 146.726 35.008 144.252 34.496L140.54 33.728C137.51 33.088 135.356 32.448 134.076 31.808C132.838 31.168 131.857 30.1653 131.132 28.8C130.406 27.392 130.044 25.792 130.044 24C130.044 20.8 131.089 18.1973 133.18 16.192C135.313 14.1866 138.086 13.184 141.5 13.184ZM190.509 5.44V17.536C193.282 14.6346 196.375 13.184 199.789 13.184C203.543 13.184 206.573 14.72 208.877 17.792C211.223 20.8213 212.397 24.8106 212.397 29.76C212.397 35.0933 211.095 39.36 208.493 42.56C205.89 45.76 202.413 47.36 198.061 47.36C193.709 47.36 190.274 45.6533 187.757 42.24C187.842 42.9226 187.885 43.456 187.885 43.84C187.885 45.8026 186.711 46.784 184.365 46.784C181.933 46.784 180.717 45.5466 180.717 43.072V13.888C180.717 11.712 180.354 10.624 179.629 10.624C179.33 10.624 178.946 10.7093 178.477 10.88C178.221 10.9653 177.879 11.008 177.453 11.008C175.405 11.008 174.381 9.83463 174.381 7.488C174.381 6.208 174.743 5.184 175.469 4.416C176.151 3.60533 177.09 3.2 178.285 3.2C178.839 3.2 179.65 3.264 180.717 3.392C181.783 3.52 182.594 3.584 183.149 3.584C184.429 3.584 185.559 3.52 186.541 3.392C187.522 3.264 188.247 3.2 188.717 3.2C189.911 3.2 190.509 3.94667 190.509 5.44ZM196.525 39.232C200.237 39.232 202.093 36.2453 202.093 30.272C202.093 24.2986 200.279 21.312 196.653 21.312C194.903 21.312 193.453 22.1653 192.301 23.872C191.191 25.536 190.637 27.648 190.637 30.208C190.637 36.224 192.599 39.232 196.525 39.232ZM240.594 44.48V41.984C237.778 45.568 234.045 47.36 229.394 47.36C227.431 47.36 225.639 46.9333 224.018 46.08C222.397 45.2266 221.223 44.096 220.498 42.688C219.815 41.2373 219.474 38.592 219.474 34.752V24.832C219.474 23.3386 219.367 22.464 219.154 22.208C218.983 21.952 218.685 21.824 218.258 21.824H217.618C217.49 21.8666 217.277 21.888 216.978 21.888C215.058 21.888 214.098 20.7146 214.098 18.368C214.098 15.5093 215.399 14.08 218.002 14.08C218.514 14.08 219.303 14.1653 220.37 14.336C221.437 14.5066 222.226 14.592 222.738 14.592C223.25 14.592 224.018 14.5066 225.042 14.336C226.066 14.1653 226.834 14.08 227.346 14.08C228.626 14.08 229.266 14.976 229.266 16.768L229.394 33.792C229.522 37.12 230.845 38.784 233.362 38.784C237.202 38.784 239.122 36.1173 239.122 30.784V24.832C239.122 22.656 238.631 21.568 237.65 21.568C237.394 21.568 237.053 21.632 236.626 21.76C236.242 21.8453 235.922 21.888 235.666 21.888C234.087 21.888 233.298 20.7573 233.298 18.496C233.298 15.552 234.493 14.08 236.882 14.08C237.479 14.08 238.354 14.1653 239.506 14.336C240.658 14.5066 241.511 14.592 242.066 14.592C242.237 14.592 243.154 14.4853 244.818 14.272C245.799 14.144 246.503 14.08 246.93 14.08C248.295 14.08 248.978 14.848 248.978 16.384V35.84C248.978 37.9733 249.383 39.04 250.194 39.04C250.535 39.04 250.834 38.9973 251.09 38.912C251.346 38.8266 251.709 38.784 252.178 38.784C254.013 38.784 254.93 39.8933 254.93 42.112C254.93 45.056 253.671 46.528 251.154 46.528C250.642 46.528 249.874 46.4426 248.85 46.272C247.869 46.1013 247.122 46.016 246.61 46.016C246.141 46.016 245.437 46.1013 244.498 46.272C243.602 46.4426 242.919 46.528 242.45 46.528C241.213 46.528 240.594 45.8453 240.594 44.48ZM270.272 14.08C271.467 14.08 272.064 14.912 272.064 16.576V35.84C272.064 38.016 272.469 39.104 273.28 39.104C273.451 39.104 273.749 39.0613 274.176 38.976C274.645 38.848 275.029 38.784 275.328 38.784C277.12 38.784 278.016 39.8933 278.016 42.112C278.016 45.056 276.757 46.528 274.24 46.528C273.813 46.528 272.619 46.4213 270.656 46.208C269.461 46.08 268.096 46.016 266.56 46.016C265.792 46.016 264.661 46.1013 263.168 46.272C261.675 46.4426 260.565 46.528 259.84 46.528C258.688 46.528 257.749 46.144 257.024 45.376C256.299 44.5653 255.936 43.5413 255.936 42.304C255.936 39.872 256.96 38.656 259.008 38.656C259.008 38.656 259.563 38.784 260.672 39.04C260.843 39.0826 260.992 39.104 261.12 39.104C261.888 39.104 262.272 37.9093 262.272 35.52V25.152C262.272 22.72 261.909 21.504 261.184 21.504C261.056 21.504 260.672 21.6106 260.032 21.824C259.605 21.9093 259.264 21.952 259.008 21.952C256.96 21.952 255.936 20.7573 255.936 18.368C255.936 17.088 256.299 16.064 257.024 15.296C257.749 14.4853 258.709 14.08 259.904 14.08C260.373 14.08 261.056 14.144 261.952 14.272C263.445 14.4853 264.64 14.592 265.536 14.592C266.261 14.592 267.2 14.5066 268.352 14.336C269.504 14.1653 270.144 14.08 270.272 14.08ZM266.624 11.648C265.045 11.648 263.68 11.072 262.528 9.92003C261.376 8.768 260.8 7.40267 260.8 5.824C260.8 4.20267 261.355 2.83733 262.464 1.728C263.616 0.576001 265.003 0 266.624 0C268.245 0 269.611 0.576001 270.72 1.728C271.872 2.83733 272.448 4.20267 272.448 5.824C272.448 7.44533 271.872 8.832 270.72 9.98403C269.611 11.0933 268.245 11.648 266.624 11.648ZM292.945 3.2C294.139 3.2 294.737 3.98933 294.737 5.568V35.84C294.737 37.9733 295.163 39.04 296.017 39.04C296.358 39.04 296.657 38.9973 296.913 38.912C297.169 38.8266 297.51 38.784 297.937 38.784C299.814 38.784 300.753 39.8933 300.753 42.112C300.753 45.056 299.473 46.528 296.913 46.528C296.87 46.528 295.249 46.4 292.049 46.144C291.067 46.0586 290.022 46.016 288.913 46.016C287.974 46.016 286.971 46.08 285.905 46.208C284.113 46.4213 282.982 46.528 282.513 46.528C281.361 46.528 280.422 46.144 279.697 45.376C278.971 44.5653 278.609 43.52 278.609 42.24C278.609 39.8506 279.654 38.656 281.745 38.656C282.001 38.656 282.342 38.7413 282.769 38.912C283.238 39.04 283.601 39.104 283.857 39.104C284.582 39.104 284.945 37.9093 284.945 35.52V14.208C284.945 11.8186 284.582 10.624 283.857 10.624C283.558 10.624 283.174 10.7093 282.705 10.88C282.449 10.9653 282.107 11.008 281.681 11.008C279.633 11.008 278.609 9.83463 278.609 7.488C278.609 6.16533 278.971 5.12 279.697 4.352C280.422 3.584 281.403 3.2 282.641 3.2C282.982 3.2 283.707 3.264 284.817 3.392C286.267 3.56267 287.355 3.648 288.081 3.648C289.062 3.648 289.915 3.56267 290.641 3.392C291.622 3.264 292.39 3.2 292.945 3.2ZM316.769 13.632C320.012 13.632 322.998 14.8906 325.729 17.408V12.8C325.729 11.264 325.196 10.496 324.129 10.496C323.873 10.496 323.361 10.5386 322.593 10.624C322.038 10.7946 321.484 10.88 320.929 10.88C320.118 10.88 319.436 10.5386 318.881 9.85603C318.326 9.17333 318.049 8.32 318.049 7.296C318.049 4.56533 319.5 3.2 322.401 3.2C323.34 3.2 324.022 3.22133 324.449 3.264C326.156 3.43467 327.308 3.52 327.905 3.52C328.46 3.52 329.27 3.47733 330.337 3.392C331.404 3.30667 332.193 3.264 332.705 3.264C333.772 3.264 334.497 3.52 334.881 4.032C335.308 4.50133 335.521 5.39733 335.521 6.72V35.84C335.521 38.016 335.926 39.104 336.737 39.104C336.993 39.104 337.313 39.04 337.697 38.912C337.953 38.8266 338.294 38.784 338.721 38.784C340.556 38.784 341.473 39.872 341.473 42.048C341.473 43.3706 341.153 44.4586 340.513 45.312C339.873 46.1226 339.02 46.528 337.953 46.528H337.569L335.329 46.144C334.817 46.0586 334.092 46.016 333.153 46.016C332.044 46.016 331.126 46.0586 330.401 46.144C329.334 46.272 328.758 46.336 328.673 46.336C327.35 46.336 326.689 45.568 326.689 44.032V41.664C324.47 45.4613 321.142 47.36 316.705 47.36C312.78 47.36 309.537 45.76 306.977 42.56C304.46 39.3173 303.201 35.2426 303.201 30.336C303.201 25.344 304.438 21.312 306.913 18.24C309.43 15.168 312.716 13.632 316.769 13.632ZM319.009 21.696C317.43 21.696 316.129 22.4426 315.105 23.936C314.124 25.4293 313.569 27.456 313.441 30.016C313.441 30.016 313.441 30.2933 313.441 30.848C313.441 33.4506 313.932 35.4986 314.913 36.992C315.937 38.4853 317.302 39.232 319.009 39.232C320.886 39.232 322.401 38.4213 323.553 36.8C324.748 35.1786 325.345 33.024 325.345 30.336C325.345 27.7333 324.769 25.6426 323.617 24.064C322.465 22.4853 320.929 21.696 319.009 21.696ZM372.687 13.184C375.972 13.184 378.746 14.1013 381.007 15.936C381.178 14.144 382.33 13.248 384.463 13.248C386.639 13.248 387.727 14.016 387.727 15.552C387.727 16.064 387.642 16.64 387.471 17.28C387.343 18.048 387.279 18.7733 387.279 19.456C387.279 19.584 387.3 19.9253 387.343 20.48C387.343 21.0346 387.343 21.5253 387.343 21.952V22.208C387.343 24.4693 386.212 25.6 383.951 25.6C382.33 25.6 380.922 24.7893 379.727 23.168C378.276 21.2053 376.506 20.224 374.415 20.224C371.94 20.224 370.703 21.0773 370.703 22.784C370.703 23.68 371.108 24.32 371.919 24.704C372.73 25.0453 374.863 25.5146 378.319 26.112C381.135 26.624 383.204 27.2 384.527 27.84C385.892 28.48 387.002 29.3973 387.855 30.592C388.922 32.128 389.455 33.92 389.455 35.968C389.455 39.2106 388.196 41.92 385.679 44.096C383.204 46.272 380.09 47.36 376.335 47.36C372.58 47.36 369.167 46.1653 366.095 43.776C366.095 45.8666 365.028 46.912 362.895 46.912C360.591 46.912 359.439 45.9733 359.439 44.096C359.439 43.6693 359.482 43.008 359.567 42.112C359.652 41.216 359.695 40.5546 359.695 40.128C359.695 39.744 359.652 39.168 359.567 38.4C359.524 37.632 359.503 37.056 359.503 36.672C359.503 34.752 360.698 33.792 363.087 33.792C364.239 33.792 365.114 33.9626 365.711 34.304C366.308 34.6453 366.948 35.3066 367.631 36.288C368.698 37.8666 369.679 38.912 370.575 39.424C371.471 39.8933 372.794 40.128 374.543 40.128C377.615 40.128 379.151 39.168 379.151 37.248C379.151 35.9253 377.914 35.008 375.439 34.496L371.727 33.728C368.698 33.088 366.543 32.448 365.263 31.808C364.026 31.168 363.044 30.1653 362.319 28.8C361.594 27.392 361.231 25.792 361.231 24C361.231 20.8 362.276 18.1973 364.367 16.192C366.5 14.1866 369.274 13.184 372.687 13.184ZM409.152 47.36C403.861 47.36 399.765 45.8666 396.864 42.88C394.005 39.8933 392.576 35.6906 392.576 30.272C392.576 24.896 394.005 20.7146 396.864 17.728C399.723 14.6986 403.733 13.184 408.896 13.184C413.973 13.184 417.963 14.6773 420.864 17.664C423.808 20.6506 425.28 24.7466 425.28 29.952C425.28 35.4133 423.851 39.68 420.992 42.752C418.176 45.824 414.229 47.36 409.152 47.36ZM408.896 21.056C407.019 21.056 405.525 21.888 404.416 23.552C403.349 25.1733 402.816 27.4133 402.816 30.272C402.816 33.1733 403.349 35.4346 404.416 37.056C405.525 38.6773 407.061 39.488 409.024 39.488C412.992 39.488 414.976 36.416 414.976 30.272C414.976 24.128 412.949 21.056 408.896 21.056ZM442.013 16V18.944C445.213 15.104 448.776 13.184 452.701 13.184C455.986 13.184 458.696 14.784 460.829 17.984C462.962 16.1493 464.776 14.8906 466.269 14.208C467.805 13.5253 469.576 13.184 471.581 13.184C475.634 13.184 478.664 14.528 480.669 17.216C482.034 19.0506 482.717 21.9946 482.717 26.048V35.84C482.717 38.016 483.122 39.104 483.933 39.104C484.189 39.104 484.53 39.04 484.957 38.912C485.17 38.8266 485.49 38.784 485.917 38.784C487.794 38.784 488.733 39.8933 488.733 42.112C488.733 43.4346 488.392 44.5013 487.709 45.312C487.026 46.1226 486.13 46.528 485.021 46.528C484.893 46.528 484.274 46.464 483.165 46.336L481.757 46.144C481.074 46.0586 480.178 46.016 479.069 46.016C477.704 46.016 476.381 46.1013 475.101 46.272C473.821 46.4426 472.925 46.528 472.413 46.528C471.389 46.528 470.536 46.144 469.853 45.376C469.213 44.5653 468.893 43.5626 468.893 42.368C468.893 40.4053 469.682 39.2746 471.261 38.976C472.072 38.848 472.541 38.6133 472.669 38.272C472.84 37.9306 472.925 36.992 472.925 35.456V28.864C472.925 26.1333 472.626 24.2773 472.029 23.296C471.474 22.272 470.386 21.76 468.765 21.76C465.138 21.76 463.325 24.3413 463.325 29.504V35.456C463.325 36.9066 463.389 37.824 463.517 38.208C463.645 38.592 463.986 38.848 464.541 38.976C465.864 39.2746 466.525 40.3413 466.525 42.176C466.525 45.0773 465.33 46.528 462.941 46.528C462.472 46.528 461.81 46.464 460.957 46.336C459.549 46.1226 458.61 46.016 458.141 46.016C457.629 46.016 456.861 46.1013 455.837 46.272C454.856 46.4426 454.109 46.528 453.597 46.528C451.506 46.528 450.461 45.184 450.461 42.496C450.461 40.576 451.122 39.4453 452.445 39.104C453.17 38.9333 453.554 38.4213 453.597 37.568C453.64 36.416 453.661 35.712 453.661 35.456V28.224C453.661 25.792 453.362 24.1066 452.765 23.168C452.21 22.2293 451.186 21.76 449.693 21.76C445.938 21.76 444.061 24.3413 444.061 29.504V37.248C444.061 37.9306 444.146 38.3786 444.317 38.592C444.488 38.7626 444.914 38.912 445.597 39.04C447.261 39.3386 448.093 40.448 448.093 42.368C448.093 45.1413 446.92 46.528 444.573 46.528C443.848 46.528 442.76 46.4426 441.309 46.272C439.901 46.1013 438.834 46.016 438.109 46.016C437.128 46.016 436.125 46.08 435.101 46.208C433.394 46.4213 432.306 46.528 431.837 46.528C430.642 46.528 429.682 46.144 428.957 45.376C428.274 44.5653 427.933 43.5413 427.933 42.304C427.933 39.872 428.957 38.656 431.005 38.656C431.346 38.656 431.73 38.7413 432.157 38.912C432.584 39.04 432.904 39.104 433.117 39.104C433.842 39.104 434.205 37.9093 434.205 35.52V25.152C434.205 22.72 433.842 21.504 433.117 21.504C432.946 21.504 432.605 21.5893 432.093 21.76C431.624 21.888 431.261 21.952 431.005 21.952C428.957 21.952 427.933 20.7573 427.933 18.368C427.933 17.1306 428.274 16.1066 428.957 15.296C429.682 14.4853 430.621 14.08 431.773 14.08C432.029 14.08 432.733 14.1866 433.885 14.4C434.568 14.528 435.208 14.592 435.805 14.592C436.317 14.592 437.064 14.5066 438.045 14.336C439.069 14.1653 439.837 14.08 440.349 14.08C441.458 14.08 442.013 14.72 442.013 16ZM521.683 27.52C521.683 29.312 521.448 30.5066 520.979 31.104C520.552 31.7013 519.678 32 518.355 32H502.739C501.971 32 501.48 32.0853 501.267 32.256C501.096 32.384 501.011 32.7466 501.011 33.344C501.011 35.136 501.587 36.6293 502.739 37.824C503.891 39.0186 505.342 39.616 507.091 39.616C508.883 39.616 510.718 38.6346 512.595 36.672C513.875 35.3066 515.283 34.624 516.819 34.624C518.099 34.624 519.123 34.9866 519.891 35.712C520.702 36.4373 521.107 37.3546 521.107 38.464C521.107 40.9386 519.742 43.0506 517.011 44.8C514.323 46.5066 511.038 47.36 507.155 47.36C502.078 47.36 498.024 45.824 494.995 42.752C491.966 39.68 490.451 35.584 490.451 30.464C490.451 25.3013 491.944 21.1413 494.931 17.984C497.96 14.784 501.907 13.184 506.771 13.184C511.294 13.184 514.899 14.4853 517.587 17.088C520.318 19.6906 521.683 23.168 521.683 27.52ZM501.331 24.32C501.331 24.576 501.395 24.7893 501.523 24.96C501.651 25.1306 502.099 25.216 502.867 25.216H510.035C510.675 25.216 511.059 25.152 511.187 25.024C511.358 24.8533 511.443 24.576 511.443 24.192C511.443 23.0826 510.952 22.1226 509.971 21.312C508.99 20.4586 507.838 20.032 506.515 20.032C504.808 20.032 503.422 20.6933 502.355 22.016C501.672 22.8693 501.331 23.6373 501.331 24.32ZM539.021 22.848V25.472L538.957 29.44L538.829 33.728C538.786 35.136 538.765 35.712 538.765 35.456C538.765 37.9733 539.575 39.232 541.197 39.232C542.733 39.232 543.501 38.1013 543.501 35.84C543.501 35.4986 543.479 35.2426 543.437 35.072C543.437 34.8586 543.437 34.5813 543.437 34.24C543.394 33.9413 543.373 33.728 543.373 33.6C543.373 31.296 544.525 30.144 546.829 30.144C549.517 30.144 550.861 32.2986 550.861 36.608C550.861 39.9786 549.858 42.624 547.853 44.544C545.847 46.4213 543.053 47.36 539.469 47.36C532.429 47.36 528.909 43.648 528.909 36.224C528.909 35.0293 528.951 33.2373 529.037 30.848C529.165 28.4586 529.229 26.6666 529.229 25.472V23.424C529.229 22.3573 529.122 21.696 528.909 21.44C528.738 21.1413 528.29 20.992 527.565 20.992H526.541C525.73 20.992 525.069 20.6933 524.557 20.096C524.045 19.456 523.789 18.6453 523.789 17.664C523.789 16.6826 524.045 15.8506 524.557 15.168C525.111 14.4426 525.751 14.08 526.477 14.08H527.693C528.717 14.08 529.314 13.7813 529.485 13.184C529.613 12.8426 529.677 12.2666 529.677 11.456V8.32C529.677 6.82667 530.061 5.80267 530.829 5.248C531.639 4.69333 533.09 4.416 535.181 4.416C536.674 4.416 537.677 4.62933 538.189 5.056C538.743 5.48267 539.021 6.42134 539.021 7.872V11.328C539.021 12.5653 539.127 13.3333 539.341 13.632C539.597 13.9306 540.215 14.08 541.197 14.08H545.805C548.322 14.08 549.581 15.2533 549.581 17.6C549.581 19.8613 548.429 20.992 546.125 20.992H540.877C539.981 20.992 539.447 21.1413 539.277 21.44C539.106 21.7386 539.021 22.208 539.021 22.848ZM568.174 5.44V17.152C570.009 15.5733 571.545 14.528 572.782 14.016C574.019 13.4613 575.555 13.184 577.39 13.184C581.358 13.184 584.174 14.4213 585.838 16.896C586.947 18.56 587.502 21.2053 587.502 24.832V35.84C587.502 37.9733 587.929 39.04 588.782 39.04C589.123 39.04 589.422 38.9973 589.678 38.912C589.934 38.8266 590.275 38.784 590.702 38.784C592.579 38.784 593.518 39.872 593.518 42.048C593.518 45.0346 592.259 46.528 589.742 46.528C589.017 46.528 587.95 46.4426 586.542 46.272C585.134 46.1013 584.067 46.016 583.342 46.016C582.659 46.016 581.635 46.1013 580.27 46.272C578.947 46.4426 577.945 46.528 577.262 46.528C576.195 46.528 575.321 46.1653 574.638 45.44C573.998 44.7146 573.678 43.7546 573.678 42.56C573.678 40.384 574.489 39.232 576.11 39.104C576.835 39.0613 577.283 38.8693 577.454 38.528C577.625 38.1866 577.71 37.6106 577.71 36.8V27.008C577.71 23.4666 576.366 21.696 573.678 21.696C570.009 21.696 568.174 24.2346 568.174 29.312V36.864C568.174 37.76 568.259 38.336 568.43 38.592C568.643 38.8053 569.177 38.976 570.03 39.104C571.353 39.3173 572.014 40.384 572.014 42.304C572.014 45.12 570.841 46.528 568.494 46.528C567.982 46.528 567.065 46.4426 565.742 46.272C564.419 46.1013 563.203 46.016 562.094 46.016C561.198 46.016 560.238 46.08 559.214 46.208C557.507 46.4213 556.419 46.528 555.95 46.528C554.798 46.528 553.859 46.144 553.134 45.376C552.409 44.5653 552.046 43.5413 552.046 42.304C552.046 39.872 553.091 38.656 555.182 38.656C555.438 38.656 555.779 38.7413 556.206 38.912C556.675 39.04 557.038 39.104 557.294 39.104C558.019 39.104 558.382 37.9093 558.382 35.52V14.208C558.382 11.8186 558.019 10.624 557.294 10.624C556.995 10.624 556.611 10.7093 556.142 10.88C555.886 10.9653 555.545 11.008 555.118 11.008C553.07 11.008 552.046 9.83463 552.046 7.488C552.046 6.208 552.409 5.184 553.134 4.416C553.859 3.60533 554.798 3.2 555.95 3.2C556.505 3.2 557.315 3.264 558.382 3.392C559.449 3.52 560.259 3.584 560.814 3.584C562.137 3.584 563.267 3.52 564.206 3.392C565.187 3.264 565.934 3.2 566.446 3.2C567.598 3.2 568.174 3.94667 568.174 5.44ZM608.96 14.08C610.154 14.08 610.752 14.912 610.752 16.576V35.84C610.752 38.016 611.157 39.104 611.968 39.104C612.138 39.104 612.437 39.0613 612.864 38.976C613.333 38.848 613.717 38.784 614.016 38.784C615.808 38.784 616.704 39.8933 616.704 42.112C616.704 45.056 615.445 46.528 612.928 46.528C612.501 46.528 611.306 46.4213 609.344 46.208C608.149 46.08 606.784 46.016 605.248 46.016C604.48 46.016 603.349 46.1013 601.856 46.272C600.362 46.4426 599.253 46.528 598.528 46.528C597.376 46.528 596.437 46.144 595.712 45.376C594.986 44.5653 594.624 43.5413 594.624 42.304C594.624 39.872 595.648 38.656 597.696 38.656C597.696 38.656 598.25 38.784 599.36 39.04C599.53 39.0826 599.68 39.104 599.808 39.104C600.576 39.104 600.96 37.9093 600.96 35.52V25.152C600.96 22.72 600.597 21.504 599.872 21.504C599.744 21.504 599.36 21.6106 598.72 21.824C598.293 21.9093 597.952 21.952 597.696 21.952C595.648 21.952 594.624 20.7573 594.624 18.368C594.624 17.088 594.986 16.064 595.712 15.296C596.437 14.4853 597.397 14.08 598.592 14.08C599.061 14.08 599.744 14.144 600.64 14.272C602.133 14.4853 603.328 14.592 604.224 14.592C604.949 14.592 605.888 14.5066 607.04 14.336C608.192 14.1653 608.832 14.08 608.96 14.08ZM605.312 11.648C603.733 11.648 602.368 11.072 601.216 9.92003C600.064 8.768 599.488 7.40267 599.488 5.824C599.488 4.20267 600.042 2.83733 601.152 1.728C602.304 0.576001 603.69 0 605.312 0C606.933 0 608.298 0.576001 609.408 1.728C610.56 2.83733 611.136 4.20267 611.136 5.824C611.136 7.44533 610.56 8.832 609.408 9.98403C608.298 11.0933 606.933 11.648 605.312 11.648ZM631.888 15.872V18.944C635.173 15.104 638.885 13.184 643.024 13.184C647.461 13.184 650.597 14.848 652.432 18.176C653.413 19.8826 653.904 22.5706 653.904 26.24V35.84C653.904 38.016 654.331 39.104 655.184 39.104C655.397 39.104 655.717 39.04 656.144 38.912C656.357 38.8266 656.677 38.784 657.104 38.784C658.981 38.784 659.92 39.8933 659.92 42.112C659.92 45.056 658.64 46.528 656.08 46.528C655.397 46.528 654.373 46.4426 653.008 46.272C651.643 46.1013 650.619 46.016 649.936 46.016C648.869 46.016 647.739 46.1013 646.544 46.272C645.349 46.4426 644.368 46.528 643.6 46.528C641.083 46.528 639.824 45.2266 639.824 42.624C639.824 40.3626 640.699 39.168 642.448 39.04C643.6 38.9546 644.176 38.4213 644.176 37.44V28.48C644.176 26.0053 643.856 24.2773 643.216 23.296C642.576 22.272 641.488 21.76 639.952 21.76C638.203 21.76 636.752 22.3573 635.6 23.552C634.491 24.7466 633.936 26.2613 633.936 28.096V34.752C633.936 36.672 634.021 37.8453 634.192 38.272C634.363 38.656 634.853 38.912 635.664 39.04C637.2 39.2533 637.968 40.4053 637.968 42.496C637.968 45.184 636.837 46.528 634.576 46.528C633.936 46.528 633.147 46.464 632.208 46.336C630.629 46.1226 629.456 46.016 628.688 46.016C627.92 46.016 626.768 46.1013 625.232 46.272C623.739 46.4426 622.608 46.528 621.84 46.528C619.152 46.528 617.808 45.0986 617.808 42.24C617.808 39.8506 618.832 38.656 620.88 38.656C621.221 38.656 621.605 38.7413 622.032 38.912C622.459 39.04 622.779 39.104 622.992 39.104C623.717 39.104 624.08 37.9093 624.08 35.52V25.152C624.08 22.72 623.717 21.504 622.992 21.504C622.821 21.504 622.48 21.5893 621.968 21.76C621.499 21.888 621.136 21.952 620.88 21.952C618.832 21.952 617.808 20.7786 617.808 18.432C617.808 17.152 618.149 16.1066 618.832 15.296C619.557 14.4853 620.496 14.08 621.648 14.08C621.989 14.08 622.715 14.1866 623.824 14.4C624.464 14.528 625.019 14.592 625.488 14.592C626 14.592 626.875 14.5066 628.112 14.336C629.349 14.1653 630.032 14.08 630.16 14.08C631.312 14.08 631.888 14.6773 631.888 15.872ZM678.469 13.184C678.469 13.184 679.28 13.2266 680.901 13.312C680.944 11.136 681.669 9.45063 683.077 8.256C684.485 7.01867 686.426 6.4 688.901 6.4C690.906 6.4 692.57 6.912 693.893 7.936C695.258 8.96 695.941 10.2613 695.941 11.84C695.941 12.9066 695.578 13.8026 694.853 14.528C694.17 15.2533 693.296 15.616 692.229 15.616C691.034 15.616 690.16 15.168 689.605 14.272L688.965 13.248C688.794 12.9493 688.517 12.8 688.133 12.8C687.237 12.8 686.789 13.4186 686.789 14.656C686.789 14.9546 686.81 15.168 686.853 15.296C690.949 16.7466 692.997 19.648 692.997 24C692.997 27.2853 691.717 29.9306 689.157 31.936C686.64 33.9413 683.312 34.944 679.173 34.944C676.954 34.944 674.672 34.4533 672.325 33.472L672.005 33.344C671.365 33.856 671.045 34.4106 671.045 35.008C671.045 36.4586 672.069 37.3546 674.117 37.696C674.8 37.824 676.357 37.888 678.789 37.888H679.493L683.589 37.824C687.685 37.7813 690.842 38.5706 693.061 40.192C695.28 41.8133 696.389 44.1173 696.389 47.104C696.389 50.9013 694.725 53.888 691.397 56.064C688.069 58.2826 683.546 59.392 677.829 59.392C672.709 59.392 668.592 58.432 665.477 56.512C662.405 54.6346 660.869 52.1173 660.869 48.96C660.869 45.5466 663.024 43.1786 667.333 41.856C663.92 41.1733 662.213 39.232 662.213 36.032C662.213 34.368 662.576 33.0666 663.301 32.128C664.069 31.1466 665.413 30.2293 667.333 29.376C665.797 27.6693 665.029 25.792 665.029 23.744C665.029 20.7573 666.309 18.2613 668.869 16.256C671.472 14.208 674.672 13.184 678.469 13.184ZM678.981 19.904C677.786 19.904 676.784 20.3093 675.973 21.12C675.205 21.888 674.821 22.8693 674.821 24.064C674.821 25.2586 675.205 26.2613 675.973 27.072C676.784 27.8826 677.786 28.288 678.981 28.288C680.176 28.288 681.157 27.8826 681.925 27.072C682.736 26.2613 683.141 25.28 683.141 24.128C683.141 22.9333 682.736 21.9306 681.925 21.12C681.157 20.3093 680.176 19.904 678.981 19.904ZM677.701 45.376C676.677 45.376 675.397 45.2906 673.861 45.12C671.941 45.888 670.981 46.8693 670.981 48.064C670.981 50.3253 673.498 51.456 678.533 51.456C683.61 51.456 686.149 50.3253 686.149 48.064C686.149 46.2293 684.485 45.312 681.157 45.312C681.029 45.312 680.453 45.3333 679.429 45.376C679.429 45.376 678.853 45.376 677.701 45.376ZM706.594 47.36C704.802 47.36 703.266 46.72 701.986 45.44C700.749 44.16 700.13 42.624 700.13 40.832C700.13 39.04 700.749 37.5253 701.986 36.288C703.266 35.008 704.802 34.368 706.594 34.368C708.386 34.368 709.901 35.008 711.138 36.288C712.418 37.5253 713.058 39.04 713.058 40.832C713.058 42.624 712.418 44.16 711.138 45.44C709.901 46.72 708.386 47.36 706.594 47.36ZM13.248 116.144C14.6987 116.144 15.424 114.821 15.424 112.176V93.744C15.424 90.8853 14.3787 89.456 12.288 89.456C10.1974 89.456 9.15198 90.1813 9.15198 91.632C9.15198 92.0586 9.21598 92.72 9.34398 93.616C9.51468 94.4693 9.59998 95.1093 9.59998 95.536C9.59998 99.333 8 101.232 4.8 101.232C3.30667 101.232 2.13334 100.763 1.28 99.824C0.42667 98.8426 0 97.5413 0 95.92C0 95.3653 0.0853399 94.3626 0.256 92.912C0.384 91.8026 0.448 90.7786 0.448 89.84C0.448 89.328 0.384 88.2826 0.256 86.704C0.17067 85.6373 0.128 84.784 0.128 84.144C0.128 82.2666 1.06667 81.328 2.944 81.328C3.92534 81.328 5.16267 81.392 6.656 81.52C10.0694 81.8186 14.848 81.968 20.992 81.968C27.1787 81.968 31.9787 81.8186 35.392 81.52C36.8854 81.392 38.1014 81.328 39.04 81.328C40.96 81.328 41.92 82.2666 41.92 84.144C41.92 84.784 41.856 85.744 41.728 87.024C41.6427 88.2613 41.6 89.2 41.6 89.84C41.6 90.5226 41.664 91.5466 41.792 92.912C41.9627 94.704 42.048 95.728 42.048 95.984C42.048 97.6053 41.6 98.8853 40.704 99.824C39.8507 100.763 38.6987 101.232 37.248 101.232C34.048 101.232 32.448 99.397 32.448 95.728C32.448 95.216 32.512 94.5333 32.64 93.68C32.768 92.8266 32.832 92.1866 32.832 91.76C32.832 90.224 31.8934 89.456 30.016 89.456C28.7787 89.456 27.904 89.776 27.392 90.416C26.88 91.056 26.624 92.1653 26.624 93.744V112.176C26.624 114.821 27.3494 116.144 28.8 116.144C29.2694 116.144 29.952 116.08 30.848 115.952C31.7867 115.781 32.4907 115.696 32.96 115.696C35.52 115.696 36.8 116.976 36.8 119.536C36.8 122.907 35.2 124.592 32 124.592C30.7627 124.592 29.2907 124.507 27.584 124.336C25.024 124.08 22.8267 123.952 20.992 123.952C19.1147 123.952 16.9174 124.08 14.4 124.336C12.736 124.507 11.264 124.592 9.98398 124.592C6.784 124.592 5.184 123.035 5.184 119.92C5.184 117.104 6.48534 115.696 9.08798 115.696C9.55738 115.696 10.24 115.781 11.136 115.952C12.0747 116.08 12.7787 116.144 13.248 116.144ZM60.527 125.36C55.2364 125.36 51.1404 123.867 48.239 120.88C45.3804 117.893 43.951 113.691 43.951 108.272C43.951 102.896 45.3804 98.7146 48.239 95.728C51.0977 92.6986 55.1084 91.184 60.271 91.184C65.3484 91.184 69.3377 92.6773 72.239 95.664C75.183 98.6506 76.655 102.747 76.655 107.952C76.655 113.413 75.2257 117.68 72.367 120.752C69.551 123.824 65.6044 125.36 60.527 125.36ZM60.271 99.056C58.3937 99.056 56.9004 99.888 55.791 101.552C54.7244 103.173 54.191 105.413 54.191 108.272C54.191 111.173 54.7244 113.435 55.791 115.056C56.9004 116.677 58.4364 117.488 60.399 117.488C64.367 117.488 66.351 114.416 66.351 108.272C66.351 102.128 64.3244 99.056 60.271 99.056ZM96.844 91.184C96.844 91.184 97.6547 91.2266 99.276 91.312C99.319 89.136 100.044 87.4506 101.452 86.256C102.86 85.0186 104.801 84.4 107.276 84.4C109.281 84.4 110.945 84.912 112.268 85.936C113.633 86.96 114.316 88.2613 114.316 89.84C114.316 90.9066 113.953 91.8026 113.228 92.528C112.545 93.2533 111.671 93.616 110.604 93.616C109.409 93.616 108.535 93.168 107.98 92.272L107.34 91.248C107.169 90.9493 106.892 90.8 106.508 90.8C105.612 90.8 105.164 91.4186 105.164 92.656C105.164 92.9546 105.185 93.168 105.228 93.296C109.324 94.7466 111.372 97.648 111.372 102C111.372 105.285 110.092 107.931 107.532 109.936C105.015 111.941 101.687 112.944 97.548 112.944C95.3294 112.944 93.0467 112.453 90.7 111.472L90.38 111.344C89.74 111.856 89.42 112.411 89.42 113.008C89.42 114.459 90.444 115.355 92.492 115.696C93.1747 115.824 94.732 115.888 97.164 115.888H97.868L101.964 115.824C106.06 115.781 109.217 116.571 111.436 118.192C113.655 119.813 114.764 122.117 114.764 125.104C114.764 128.901 113.1 131.888 109.772 134.064C106.444 136.283 101.921 137.392 96.204 137.392C91.084 137.392 86.9667 136.432 83.852 134.512C80.78 132.635 79.244 130.117 79.244 126.96C79.244 123.547 81.3987 121.179 85.708 119.856C82.2947 119.173 80.588 117.232 80.588 114.032C80.588 112.368 80.9507 111.067 81.676 110.128C82.444 109.147 83.788 108.229 85.708 107.376C84.172 105.669 83.404 103.792 83.404 101.744C83.404 98.7573 84.684 96.2613 87.244 94.256C89.8467 92.208 93.0467 91.184 96.844 91.184ZM97.356 97.904C96.1614 97.904 95.1587 98.3093 94.348 99.12C93.58 99.888 93.196 100.869 93.196 102.064C93.196 103.259 93.58 104.261 94.348 105.072C95.1587 105.883 96.1614 106.288 97.356 106.288C98.5507 106.288 99.532 105.883 100.3 105.072C101.111 104.261 101.516 103.28 101.516 102.128C101.516 100.933 101.111 99.931 100.3 99.12C99.532 98.3093 98.5507 97.904 97.356 97.904ZM96.076 123.376C95.052 123.376 93.772 123.291 92.236 123.12C90.316 123.888 89.356 124.869 89.356 126.064C89.356 128.325 91.8734 129.456 96.908 129.456C101.985 129.456 104.524 128.325 104.524 126.064C104.524 124.229 102.86 123.312 99.532 123.312C99.404 123.312 98.828 123.333 97.804 123.376C97.804 123.376 97.228 123.376 96.076 123.376ZM147.433 105.52C147.433 107.312 147.198 108.507 146.729 109.104C146.302 109.701 145.428 110 144.105 110H128.489C127.721 110 127.23 110.085 127.017 110.256C126.846 110.384 126.761 110.747 126.761 111.344C126.761 113.136 127.337 114.629 128.489 115.824C129.641 117.019 131.092 117.616 132.841 117.616C134.633 117.616 136.468 116.635 138.345 114.672C139.625 113.307 141.033 112.624 142.569 112.624C143.849 112.624 144.873 112.987 145.641 113.712C146.452 114.437 146.857 115.355 146.857 116.464C146.857 118.939 145.492 121.051 142.761 122.8C140.073 124.507 136.788 125.36 132.905 125.36C127.828 125.36 123.774 123.824 120.745 120.752C117.716 117.68 116.201 113.584 116.201 108.464C116.201 103.301 117.694 99.141 120.681 95.984C123.71 92.784 127.657 91.184 132.521 91.184C137.044 91.184 140.649 92.4853 143.337 95.088C146.068 97.6906 147.433 101.168 147.433 105.52ZM127.081 102.32C127.081 102.576 127.145 102.789 127.273 102.96C127.401 103.131 127.849 103.216 128.617 103.216H135.785C136.425 103.216 136.809 103.152 136.937 103.024C137.108 102.853 137.193 102.576 137.193 102.192C137.193 101.083 136.702 100.123 135.721 99.312C134.74 98.4586 133.588 98.032 132.265 98.032C130.558 98.032 129.172 98.6933 128.105 100.016C127.422 100.869 127.081 101.637 127.081 102.32ZM164.771 100.848V103.472L164.707 107.44L164.579 111.728C164.536 113.136 164.515 113.712 164.515 113.456C164.515 115.973 165.325 117.232 166.947 117.232C168.483 117.232 169.251 116.101 169.251 113.84C169.251 113.499 169.229 113.243 169.187 113.072C169.187 112.859 169.187 112.581 169.187 112.24C169.144 111.941 169.123 111.728 169.123 111.6C169.123 109.296 170.275 108.144 172.579 108.144C175.267 108.144 176.611 110.299 176.611 114.608C176.611 117.979 175.608 120.624 173.603 122.544C171.597 124.421 168.803 125.36 165.219 125.36C158.179 125.36 154.659 121.648 154.659 114.224C154.659 113.029 154.701 111.237 154.787 108.848C154.915 106.459 154.979 104.667 154.979 103.472V101.424C154.979 100.357 154.872 99.696 154.659 99.44C154.488 99.141 154.04 98.992 153.315 98.992H152.291C151.48 98.992 150.819 98.6933 150.307 98.096C149.795 97.456 149.539 96.6453 149.539 95.664C149.539 94.6826 149.795 93.8506 150.307 93.168C150.861 92.4426 151.501 92.08 152.227 92.08H153.443C154.467 92.08 155.064 91.7813 155.235 91.184C155.363 90.8426 155.427 90.2666 155.427 89.456V86.32C155.427 84.8266 155.811 83.8026 156.579 83.248C157.389 82.6933 158.84 82.416 160.931 82.416C162.424 82.416 163.427 82.6293 163.939 83.056C164.493 83.4826 164.771 84.4213 164.771 85.872V89.328C164.771 90.5653 164.877 91.3333 165.091 91.632C165.347 91.9306 165.965 92.08 166.947 92.08H171.555C174.072 92.08 175.331 93.2533 175.331 95.6C175.331 97.8613 174.179 98.992 171.875 98.992H166.627C165.731 98.992 165.197 99.141 165.027 99.44C164.856 99.739 164.771 100.208 164.771 100.848ZM193.924 83.44V95.152C195.759 93.5733 197.295 92.528 198.532 92.016C199.769 91.4613 201.305 91.184 203.14 91.184C207.108 91.184 209.924 92.4213 211.588 94.896C212.697 96.56 213.252 99.205 213.252 102.832V113.84C213.252 115.973 213.679 117.04 214.532 117.04C214.873 117.04 215.172 116.997 215.428 116.912C215.684 116.827 216.025 116.784 216.452 116.784C218.329 116.784 219.268 117.872 219.268 120.048C219.268 123.035 218.009 124.528 215.492 124.528C214.767 124.528 213.7 124.443 212.292 124.272C210.884 124.101 209.817 124.016 209.092 124.016C208.409 124.016 207.385 124.101 206.02 124.272C204.697 124.443 203.695 124.528 203.012 124.528C201.945 124.528 201.071 124.165 200.388 123.44C199.748 122.715 199.428 121.755 199.428 120.56C199.428 118.384 200.239 117.232 201.86 117.104C202.585 117.061 203.033 116.869 203.204 116.528C203.375 116.187 203.46 115.611 203.46 114.8V105.008C203.46 101.467 202.116 99.696 199.428 99.696C195.759 99.696 193.924 102.235 193.924 107.312V114.864C193.924 115.76 194.009 116.336 194.18 116.592C194.393 116.805 194.927 116.976 195.78 117.104C197.103 117.317 197.764 118.384 197.764 120.304C197.764 123.12 196.591 124.528 194.244 124.528C193.732 124.528 192.815 124.443 191.492 124.272C190.169 124.101 188.953 124.016 187.844 124.016C186.948 124.016 185.988 124.08 184.964 124.208C183.257 124.421 182.169 124.528 181.7 124.528C180.548 124.528 179.609 124.144 178.884 123.376C178.159 122.565 177.796 121.541 177.796 120.304C177.796 117.872 178.841 116.656 180.932 116.656C181.188 116.656 181.529 116.741 181.956 116.912C182.425 117.04 182.788 117.104 183.044 117.104C183.769 117.104 184.132 115.909 184.132 113.52V92.208C184.132 89.8186 183.769 88.624 183.044 88.624C182.745 88.624 182.361 88.7093 181.892 88.88C181.636 88.9653 181.295 89.008 180.868 89.008C178.82 89.008 177.796 87.8346 177.796 85.488C177.796 84.208 178.159 83.184 178.884 82.416C179.609 81.6053 180.548 81.2 181.7 81.2C182.255 81.2 183.065 81.264 184.132 81.392C185.199 81.52 186.009 81.584 186.564 81.584C187.887 81.584 189.017 81.52 189.956 81.392C190.937 81.264 191.684 81.2 192.196 81.2C193.348 81.2 193.924 81.9466 193.924 83.44ZM252.246 105.52C252.246 107.312 252.011 108.507 251.542 109.104C251.115 109.701 250.24 110 248.918 110H233.302C232.534 110 232.043 110.085 231.83 110.256C231.659 110.384 231.574 110.747 231.574 111.344C231.574 113.136 232.15 114.629 233.302 115.824C234.454 117.019 235.904 117.616 237.654 117.616C239.446 117.616 241.28 116.635 243.158 114.672C244.438 113.307 245.846 112.624 247.382 112.624C248.662 112.624 249.686 112.987 250.454 113.712C251.264 114.437 251.67 115.355 251.67 116.464C251.67 118.939 250.304 121.051 247.574 122.8C244.886 124.507 241.6 125.36 237.718 125.36C232.64 125.36 228.587 123.824 225.558 120.752C222.528 117.68 221.014 113.584 221.014 108.464C221.014 103.301 222.507 99.141 225.494 95.984C228.523 92.784 232.47 91.184 237.334 91.184C241.856 91.184 245.462 92.4853 248.15 95.088C250.88 97.6906 252.246 101.168 252.246 105.52ZM231.894 102.32C231.894 102.576 231.958 102.789 232.086 102.96C232.214 103.131 232.662 103.216 233.43 103.216H240.598C241.238 103.216 241.622 103.152 241.75 103.024C241.92 102.853 242.006 102.576 242.006 102.192C242.006 101.083 241.515 100.123 240.534 99.312C239.552 98.4586 238.4 98.032 237.078 98.032C235.371 98.032 233.984 98.6933 232.918 100.016C232.235 100.869 231.894 101.637 231.894 102.32ZM269.199 94.064V99.504C269.796 97.328 270.5 95.728 271.311 94.704C273.188 92.3573 275.812 91.184 279.183 91.184C281.53 91.184 283.492 91.952 285.071 93.488C286.692 94.9813 287.503 96.8373 287.503 99.056C287.503 100.805 286.991 102.256 285.967 103.408C284.943 104.517 283.642 105.072 282.063 105.072C280.868 105.072 279.844 104.688 278.991 103.92C278.18 103.152 277.775 102.213 277.775 101.104C277.775 100.507 278.052 99.675 278.607 98.608H278.223C275.364 98.608 273.444 100.123 272.463 103.152C271.695 105.584 271.311 108.379 271.311 111.536V113.968C271.311 115.504 271.439 116.485 271.695 116.912C271.866 117.168 272.164 117.296 272.591 117.296C272.975 117.296 273.508 117.211 274.191 117.04C274.874 116.869 275.386 116.784 275.727 116.784C276.666 116.784 277.455 117.125 278.095 117.808C278.778 118.448 279.119 119.237 279.119 120.176C279.119 121.413 278.692 122.459 277.839 123.312C277.028 124.123 276.026 124.528 274.831 124.528C274.191 124.528 272.996 124.421 271.247 124.208C270.18 124.08 268.836 124.016 267.215 124.016C265.594 124.016 264.164 124.08 262.927 124.208C260.879 124.421 259.62 124.528 259.151 124.528C256.506 124.528 255.183 123.099 255.183 120.24C255.183 117.851 256.207 116.656 258.255 116.656C258.596 116.656 258.98 116.741 259.407 116.912C259.834 117.04 260.154 117.104 260.367 117.104C261.092 117.104 261.455 115.909 261.455 113.52V103.152C261.455 100.72 261.092 99.504 260.367 99.504C260.196 99.504 259.855 99.589 259.343 99.76C258.874 99.888 258.511 99.952 258.255 99.952C256.207 99.952 255.183 98.7786 255.183 96.432C255.183 95.152 255.524 94.1066 256.207 93.296C256.89 92.4853 257.764 92.08 258.831 92.08C259.258 92.08 259.855 92.1653 260.623 92.336C261.391 92.5066 262.116 92.592 262.799 92.592C263.311 92.592 264.058 92.5066 265.039 92.336C266.02 92.1653 266.746 92.08 267.215 92.08C268.538 92.08 269.199 92.7413 269.199 94.064ZM300.736 125.36C299.115 125.36 297.707 124.763 296.512 123.568C295.317 122.373 294.72 120.944 294.72 119.28C294.72 117.616 295.317 116.187 296.512 114.992C297.707 113.797 299.115 113.2 300.736 113.2C302.4 113.2 303.829 113.797 305.024 114.992C306.219 116.187 306.816 117.616 306.816 119.28C306.816 120.944 306.219 122.373 305.024 123.568C303.829 124.763 302.4 125.36 300.736 125.36ZM305.088 107.952C304.875 110.085 303.872 111.152 302.08 111.152H299.584C297.792 111.152 296.789 110.085 296.576 107.952L294.592 87.344C294.464 86.0213 294.4 85.168 294.4 84.784C294.4 81.8826 296.533 80.432 300.8 80.432C305.067 80.432 307.2 81.8826 307.2 84.784C307.2 85.5946 307.157 86.448 307.072 87.344L305.088 107.952Z" fill="black"/>
</g>
<defs>
<filter id="filter0_g_6_38916" x="-1" y="-1" width="715.058" height="139.392" filterUnits="userSpaceOnUse" color-interpolation-filters="sRGB">
<feFlood flood-opacity="0" result="BackgroundImageFix"/>
<feBlend mode="normal" in="SourceGraphic" in2="BackgroundImageFix" result="shape"/>
<feTurbulence type="fractalNoise" baseFrequency="0.5 0.5" numOctaves="3" seed="7313" />
<feDisplacementMap in="shape" scale="2" xChannelSelector="R" yChannelSelector="G" result="displacedImage" width="100%" height="100%" />
<feMerge result="effect1_texture_6_38916">
<feMergeNode in="displacedImage"/>
</feMerge>
</filter>
</defs>
</svg>
