<svg width="135" height="32" viewBox="0 0 135 32" fill="none" xmlns="http://www.w3.org/2000/svg">
<g clip-path="url(#clip0_202_1261)">
<path fill-rule="evenodd" clip-rule="evenodd" d="M16 32C24.8365 32 32 24.8365 32 16C32 7.16344 24.8365 0 16 0C7.16345 0 0 7.16344 0 16C0 24.8365 7.16345 32 16 32ZM16 17.6249L9.05627 10.5466C8.63908 11.9463 8.41189 13.396 8.38121 14.8565L6.45073 14.8316C6.43441 12.9576 7.48355 8.65771 8.14879 6.81699L16 14.9047L23.8512 6.81699C24.5165 8.65771 25.5656 12.9576 25.5493 14.8316L23.6188 14.8565C23.5881 13.396 23.3609 11.9463 22.9437 10.5466L16 17.6249ZM10.0146 20.9488C10.0146 20.9488 12.0365 24.2295 15.0709 24.6949C15.0709 24.6949 15.0625 26.6039 15.0625 27.7675C12.2386 27.8393 9.75557 25.612 8.66423 24.1552C6.42853 21.1712 6.437 19.2783 6.44892 16.6093C6.44981 16.4105 6.45073 16.2069 6.45073 15.9988H12.6483L16 19.3325L19.3517 15.9988H25.5493C25.5493 16.2071 25.5503 16.4101 25.5511 16.6089C25.5631 19.278 25.5715 21.1712 23.3357 24.1552C22.2444 25.612 19.7615 27.8393 16.9375 27.7675C16.9375 26.6039 16.9291 24.6949 16.9291 24.6949C19.9635 24.2295 21.9853 20.9488 21.9853 20.9488H10.0146Z" fill="#24272F" fill-opacity="0.85"/>
<path d="M58.4804 9.14865V7.56404H50.5575L49.6329 6.44336L48.4011 7.43269L49.8092 9.14865H58.4804Z" fill="#24272F" fill-opacity="0.85"/>
<path d="M56.8092 16.3887L59.6042 13.9476L58.568 12.7588L56.1708 14.8488L55.093 12.23V10.4476H49.0626V12.0322H53.5084V24.0024H51.5283V25.5869H55.093V16.3887L58.3938 24.3548L59.8458 23.7613L56.8092 16.3887Z" fill="#24272F" fill-opacity="0.85"/>
<path d="M52.1874 13.5065H48.5113V15.0911H50.6031V15.5301L48.1823 23.9371L49.7001 24.3543L52.1874 15.6847V13.5065Z" fill="#24272F" fill-opacity="0.85"/>
<path d="M41.8232 23.2092L40.9921 25.2327L42.4435 25.8263L43.4116 23.5167L43.4077 8.75322H46.0916V24.0905H44.5072V25.6751H47.6761V7.16861H41.8233L41.8232 23.2092Z" fill="#24272F" fill-opacity="0.85"/>
<path d="M74.1574 25.9175V21.4944L65.9935 25.4119L65.3282 23.9819L74.1574 19.7336V17.9045H67.8123V21.3615H66.2279V16.3233H74.1574V14.6272H65.0626V13.0443H74.1574V11.5029H75.7419V13.0426H84.831V14.6272H75.734V16.3233H83.6551V21.3615H82.0707V17.9079H75.734V19.7369L84.5364 23.9836L83.8712 25.4136L75.7236 21.4961V25.9191L74.1574 25.9175ZM75.0819 8.95725H68.2746L66.7116 11.3782L65.3452 10.492L67.0394 7.89636V6.22198H68.6239V7.36598H75.072L75.0819 8.95725ZM78.3611 6.22865V7.37257H84.799V8.95725H78.0002L76.4156 11.3782L75.074 10.4986L76.7682 7.89473V6.22198L78.3611 6.22865Z" fill="#24272F" fill-opacity="0.85"/>
<path d="M81.9344 9.79209L80.9368 9.12695C80.4002 9.88851 79.8531 10.5969 79.2943 11.2519C79.6265 11.4881 79.9164 11.7131 80.1638 11.927C80.7533 11.2764 81.3436 10.5647 81.9344 9.79209Z" fill="#24272F" fill-opacity="0.85"/>
<path d="M72.3648 9.79209L71.3672 9.12695C70.8305 9.88851 70.2828 10.5969 69.724 11.2519C70.0569 11.4881 70.3468 11.7131 70.5936 11.927C71.1844 11.2764 71.7745 10.5647 72.3648 9.79209Z" fill="#24272F" fill-opacity="0.85"/>
<path d="M46.0705 12.4197L45.0729 11.7546C44.5363 12.5161 43.9885 13.2245 43.4297 13.8796C43.7627 14.1156 44.0525 14.3407 44.2993 14.5547C44.8901 13.904 45.4809 13.1923 46.0705 12.4197Z" fill="#24272F" fill-opacity="0.85"/>
<path d="M46.0705 17.7497L45.0729 17.0847C44.5363 17.8461 43.9885 18.5545 43.4297 19.2097C43.7627 19.4459 44.0525 19.6708 44.2993 19.8847C44.8901 19.2341 45.4809 18.5224 46.0705 17.7497Z" fill="#24272F" fill-opacity="0.85"/>
<path d="M92.5383 25.7353V16.9933C91.8135 18.7945 91.0885 20.5517 90.3637 22.3308L88.914 21.7377L92.1649 13.7205H89.0679V12.1391H92.5383V8.97617H89.3095V7.39469H95.4157L96.47 6.31841L97.6121 7.41667L96.1185 8.97617H94.1197V12.1391H97.5903V13.7205H94.6249L97.3485 19.0361L95.9209 19.7609L94.1197 16.2245V25.7353H92.5383ZM108.573 19.1979L106.003 19.4759V25.7573H104.421V19.6467L97.8757 20.354V18.7725L104.421 18.0755V6.03287H106.003V17.8944L108.573 17.6164V19.1979Z" fill="#24272F" fill-opacity="0.85"/>
<path d="M103.166 9.34695L100.807 12.0136L99.6033 11.0063L101.964 8.36157L103.166 9.34695Z" fill="#24272F" fill-opacity="0.85"/>
<path d="M103.166 14.0558L100.807 16.7226L99.6033 15.7152L101.964 13.0704L103.166 14.0558Z" fill="#24272F" fill-opacity="0.85"/>
<path d="M113.694 16.5957C114.634 16.3377 115.547 16.0764 116.435 15.8116V11.2683H113.931V9.83797H116.433V6.05017H117.902V9.84306H120.064V11.2734H117.904V15.354C118.534 15.1555 119.15 14.9535 119.755 14.7481C119.762 15.2661 119.803 15.7832 119.874 16.2963C119.192 16.5139 118.537 16.7287 117.909 16.9408V22.948C117.909 24.4435 117.254 25.2052 115.944 25.2332C115.533 25.2449 114.924 25.2332 114.116 25.2131C114.062 24.6835 113.983 24.1344 113.877 23.5656C114.431 23.6333 114.987 23.6732 115.545 23.6851C116.141 23.6851 116.439 23.3485 116.439 22.6755V17.4288C115.531 17.7339 114.684 18.0256 113.897 18.3037L113.694 16.5957Z" fill="#24272F" fill-opacity="0.85"/>
<path fill-rule="evenodd" clip-rule="evenodd" d="M126.176 10.2062V13.3911H120.911V14.8832H130.566C129.571 17.3991 128.313 19.2423 126.792 20.4124C125.595 19.2157 124.701 17.7504 124.006 16.2149L122.507 16.8813C123.248 18.5435 124.153 20.1983 125.475 21.4656C123.837 22.5773 121.672 23.572 118.981 24.4497C119.039 24.5667 119.156 24.7715 119.332 25.064C119.624 25.5321 119.829 25.854 119.946 26.0295C122.93 24.8592 125.212 23.7476 126.792 22.6944C128.372 23.8061 130.39 24.8593 132.848 25.854C132.965 25.6784 133.14 25.3859 133.375 24.9763C133.608 24.5667 133.755 24.2741 133.813 24.0987C131.122 23.2795 129.249 22.4311 128.196 21.5533C129.893 20.0321 131.297 17.838 132.409 14.9709V13.3911H127.758V10.2062H132.919V8.62471H127.758V5.98892H126.176V8.62471H120.993V10.2062H126.176Z" fill="#24272F" fill-opacity="0.85"/>
</g>
<defs>
<clipPath id="clip0_202_1261">
<rect width="134.667" height="32" fill="white"/>
</clipPath>
</defs>
</svg>
