<svg width="102" height="32" viewBox="0 0 102 32" fill="none" xmlns="http://www.w3.org/2000/svg">
<g id="Title">
<g id="Group 1">
<path id="Vector 7" d="M70.2779 6C70.278 13.9279 69.1352 25.9558 75.5053 25.8197C81.8754 25.6837 80.7296 13.5675 80.7296 6" stroke="#DA1A00" stroke-width="6" stroke-linecap="round"/>
<path id="Vector 6" d="M98.3872 25.8208C98.3871 17.8929 99.5298 5.86499 93.1598 6.00106C88.9562 6.09084 88.0255 11.3973 87.8786 17.171M87.9354 25.8208C87.9354 23.247 87.8029 20.1469 87.8786 17.171M87.8786 17.171L87.9354 6.00106" stroke="#DA1A00" stroke-width="6" stroke-linecap="round"/>
<path id="Vector 4" d="M61.6001 7.61219C60.5463 5.75004 57.2346 5.19313 55.729 7.61219C54.2233 10.0313 56.4814 12.8599 59.342 13.8758C62.2025 14.8916 63.7994 16.9228 63.7074 20.6472C63.5568 26.7415 55.729 27.4185 53.6211 22.8478" stroke="#DA1A00" stroke-width="6" stroke-linecap="round"/>
<path id="Vector 2" d="M30.2045 7.694L24.8274 6.31908C24.0675 6.12477 23.252 6.38545 22.8386 7.05204C21.4391 9.30837 20.5147 12.4876 20.4695 15.8252M31.2785 23.6176C29.2115 24.704 26.4694 25.355 24.6944 25.6577C24.0043 25.7754 23.3089 25.4868 22.9279 24.8996C21.14 22.1442 20.4275 18.9168 20.4695 15.8252M20.4695 15.8252L30.2045 15.6558" stroke="#DA1A00" stroke-width="6" stroke-linecap="round"/>
<path id="Vector 3" d="M42.1522 6.43722C53.5995 10.8976 47.7929 24.325 41.8499 25.7049C41.246 25.8451 40.6475 25.537 40.3046 25.0204C38.4584 22.2388 37.7243 18.9621 37.7669 15.8252C37.8118 12.5123 38.7229 9.35526 40.1051 7.1021C40.5308 6.40815 41.3936 6.14165 42.1522 6.43722Z" stroke="#DA1A00" stroke-width="6" stroke-linecap="round"/>
<path id="Vector 1" d="M4.44014 25.9998C3.35746 22.3962 3.00013 20.234 3 15.7296M3 15.7296C3.06061 12.1284 3.3086 10.163 4.70344 7.13143C4.97948 6.53149 5.55065 6.11837 6.20935 6.07107C9.31359 5.84817 13.6296 6.40882 13.6296 10.144C13.6296 16.6305 6.27691 15.6695 3 15.7296ZM3 15.7296C4.59523 15.6094 9.08903 15.7656 11.107 18.0719C13.6296 20.9548 13.089 22.9367 16.1521 25.2791" stroke="#DA1A00" stroke-width="6" stroke-linecap="round"/>
</g>
</g>
</svg>
